<svg width="27" height="23" fill="none" xmlns="http://www.w3.org/2000/svg"><path d="M18.812.016c.077.056.17.097.232.169.898 1.109 1.796 2.218 2.678 3.335 1.471 1.865 2.926 3.737 4.39 5.61.27.353.278.466-.07.74-.712.562-1.44 1.1-2.16 1.647-.124.096-.263.064-.372-.032a4.484 4.484 0 01-.332-.338 4.344 4.344 0 01-.271-.346c-.055.113-.109.21-.155.298-.325.61-.743 1.133-1.355 1.462a2.564 2.564 0 01-.34.145.428.428 0 00-.256.241 1.8 1.8 0 01-.929.924c-.038.016-.077.04-.123.057-.093.048-.124.104-.086.217.271.884-.193 1.872-1.021 2.21-.217.088-.202.088-.186.321.015.314.03.627 0 .94-.047.419-.302.724-.612.965-.14.113-.31.2-.464.29-.109.056-.163.12-.14.265.055.353.086.707-.007 1.06-.186.716-.883 1.246-1.603 1.246-.379 0-.727-.104-1.06-.273-.511-.257-1.03-.515-1.548-.772-.008 0-.016-.008-.039-.008l-.116.193c-.201.33-.403.66-.62.989-.293.45-.711.618-1.215.498-.92-.217-1.64-.723-2.043-1.631-.093-.217-.201-.274-.41-.314-.991-.2-1.789-.691-2.106-1.768-.046-.169-.147-.217-.294-.241-.643-.105-1.161-.434-1.595-.932-.371-.426-.402-.933-.162-1.415.131-.281.116-.45-.078-.683-.31-.37-.518-.804-.696-1.254-.024-.056-.047-.112-.086-.2-.038.056-.054.096-.077.128-.054.088-.093.185-.155.257-.201.241-.302.257-.526.137-.751-.394-1.502-.78-2.245-1.174-.155-.08-.302-.176-.372-.353v-.169c.078-.145.148-.297.225-.442 1.308-2.363 2.616-4.726 3.925-7.08.503-.909 1.021-1.817 1.532-2.725.1-.177.186-.217.38-.169.131.032.263.08.387.145.596.305 1.184.61 1.772.924.147.08.287.169.418.265.186.137.217.314.116.523-.046.088-.085.185-.131.273-.054.113-.039.185.077.25.79.457 1.572.915 2.353 1.382.271.16.542.313.813.474 1.533-1.166 3.073-2.29 4.59-3.48-.07-.105-.131-.185-.185-.273-.055-.089-.124-.185-.163-.282-.093-.217-.054-.353.124-.498.232-.193.472-.378.712-.555C17.666.788 18.2.394 18.734 0c.008.016.047.016.078.016zm-7.532 6.84c-1.006-.595-1.99-1.174-2.972-1.753-.055.089-.101.153-.14.225-1.308 2.347-2.616 4.694-3.924 7.049a.305.305 0 00-.039.136c.039.716.302 1.35.681 1.937.031.048.07.08.1.12.024-.015.04-.015.047-.024.023-.032.054-.064.07-.096.255-.41.627-.587 1.076-.61.526-.025.983.176 1.385.522.148.12.271.273.41.393a.363.363 0 00.248.089c.728-.097 1.425-.016 2.067.394.403.257.705.61.844 1.069.062.2.155.249.325.28.736.137 1.355.5 1.881 1.054.519.546.519 1.35.186 1.84-.031.048-.054.105-.085.153.03.024.054.04.077.056a90.3 90.3 0 001.525.763c.17.08.348.137.534.161.348.04.69-.209.828-.57.148-.378.07-.82-.209-1.053-.147-.129-.325-.233-.487-.338-.395-.24-.79-.474-1.177-.731a.435.435 0 01-.17-.25c-.054-.288.248-.578.526-.425.349.185.705.37 1.06.554.21.105.427.217.643.29.387.128.782-.065.983-.458.21-.402.14-.868-.178-1.134a2.797 2.797 0 00-.433-.297c-.558-.305-1.123-.603-1.68-.908a51.13 51.13 0 01-1.122-.635c-.194-.12-.233-.33-.117-.522.117-.201.287-.266.496-.161.658.33 1.308.667 1.958.996.41.21.82.418 1.239.611.1.049.224.065.333.049.44-.057.696-.338.813-.764.092-.338-.101-.836-.41-1.005-.55-.297-1.1-.586-1.642-.884-.48-.257-.952-.514-1.432-.771a.38.38 0 01-.209-.306c-.023-.33.248-.546.542-.41.565.274 1.13.563 1.695.844.496.25.991.507 1.494.732.34.152.658.064.921-.201a.953.953 0 00.24-.98c-.085-.306-.317-.467-.58-.587a2261.16 2261.16 0 01-4.885-2.178c-.085-.04-.139-.024-.209.024a94.79 94.79 0 01-1.463.996c-.464.314-.92.62-1.4.909a1.428 1.428 0 01-.59.2c-.758.073-1.524-.41-1.78-1.117-.247-.683-.185-1.51.527-2.097.294-.241.604-.474.906-.716.224-.128.433-.28.673-.466zm9.7 4.99l.061-.032c.612-.378.96-.964 1.2-1.64.015-.048-.008-.12-.031-.16a7.235 7.235 0 00-.348-.507c-1.486-1.904-2.98-3.809-4.467-5.714-.07-.088-.147-.176-.224-.265-.078.056-.132.097-.194.137a2154.326 2154.326 0 00-5.155 3.865c-.55.41-1.068.852-1.61 1.278-.263.21-.356.474-.31.812.047.321.318.7.604.74.333.048.673.104.952-.177.054-.057.124-.089.186-.137.86-.587 1.718-1.165 2.57-1.76a.428.428 0 01.457-.048c.766.337 1.548.65 2.314.988.968.426 1.928.868 2.895 1.302.449.201.774.53.96 1.005.039.12.093.209.14.313zm4.303-2.427a6237.726 6237.726 0 01-6.564-8.39l-1.455 1.14c.232.403 6.37 8.215 6.564 8.36.472-.363.952-.724 1.455-1.11zM6.357 3.014c-1.734 3.118-3.46 6.22-5.194 9.33.054.033.093.065.131.08.434.234.875.475 1.316.708.178.097.186.088.287-.088 1.664-2.99 3.32-5.972 4.985-8.961a2.54 2.54 0 00.1-.21c-.55-.28-1.075-.57-1.625-.86zm4.962 18.275c.178-.024.247-.16.317-.28.403-.668.797-1.343 1.192-2.018.186-.314.163-.482-.077-.764a1.824 1.824 0 00-.17-.177c-.357-.313-.775-.498-1.216-.626-.162-.049-.286 0-.395.128-.054.065-.1.129-.147.201-.387.66-.774 1.31-1.153 1.97a.275.275 0 00-.016.176c.155.554.542.9 1.014 1.15.21.112.434.168.65.24zm-2.47-5.658c-.363-.024-.495.049-.572.233-.101.242-.194.483-.31.716-.194.386-.41.763-.596 1.157a.805.805 0 00.163.94 2.33 2.33 0 001.122.603c.155.032.286-.008.38-.16.348-.587.704-1.166 1.044-1.753.1-.168.186-.345.271-.522.023-.056.047-.137.023-.193-.085-.273-.224-.514-.472-.667a2.266 2.266 0 00-1.053-.353zm-2.585-.94c-.201-.008-.356.056-.457.25-.178.32-.356.634-.534.956a2.89 2.89 0 00-.155.385.377.377 0 00.078.378c.325.37.735.57 1.207.643a.283.283 0 00.302-.153c.225-.417.441-.835.666-1.261a.502.502 0 00-.016-.49 1.31 1.31 0 00-1.091-.708z" fill="#67779A"/></svg>