<svg width="20" height="28" fill="none" xmlns="http://www.w3.org/2000/svg"><path d="M20 27c0 .549-.444 1-.992 1H.988A.986.986 0 010 27V3a1 1 0 011-1c1.418 0 2.017-.002 3.434.003.124 0 .188-.042.25-.143L5.89.127C5.943.04 5.998 0 6.107 0c2.596.003 5.192.003 7.788 0 .101 0 .155.035.206.12.405.666.818 1.088 1.221 1.755.059.096.122.125.23.125 1.427-.003 2.021 0 3.448 0a1 1 0 011 1v24zM1 27h18V3h-3.175v1.886a1 1 0 01-1 1H5.168a1 1 0 01-1-1V3H1v24zM5.168 5h9.617c0-.406.004-1.603 0-2 0-.034-.261-.462-.285-.5-.367-.597-.449-.8-.813-1.398C13.64 1.025 13.589 1 13.5 1c-2.108.003-4.892.002-7 0-.087 0-.14.022-.188.1L5.5 2.5l-.332.5v2z" fill="#67779A"/><path d="M16.5 9a.501.501 0 010 1h-8a.499.499 0 110-1h8zm-8 5a.5.5 0 110-1h8c.276 0 .5.22.5.496a.503.503 0 01-.5.504h-8zm0 4a.499.499 0 110-1h8c.276 0 .5.22.5.496a.503.503 0 01-.5.504h-8zm0 4a.499.499 0 01-.5-.498c0-.276.224-.502.5-.502h8c.276 0 .5.22.5.496a.503.503 0 01-.5.504h-8zM4 9.504C4 9.228 4.224 9 4.5 9h1c.276 0 .5.222.5.498a.501.501 0 01-.5.502h-1c-.276 0-.5-.22-.5-.496zm0 4.001c0-.276.224-.505.5-.505h1c.276 0 .5.222.5.498a.501.501 0 01-.5.502h-1a.496.496 0 01-.5-.495zM4.5 18a.5.5 0 110-1h1a.499.499 0 110 1h-1zM6 21.498a.502.502 0 01-.5.502h-1a.498.498 0 01-.5-.498c0-.276.224-.502.5-.502h1c.276 0 .5.222.5.498z" fill="#67779A"/></svg>