<svg width="27" height="25" fill="none" xmlns="http://www.w3.org/2000/svg"><path d="M2.84 24.267c-.881-2.952-1.763-5.889-2.652-8.84 1.304-.39 2.608-.78 3.92-1.17.044.14.089.272.133.42.074-.111.14-.214.208-.31a1224.87 1224.87 0 003.26-4.997c.334-.516.77-.891 1.349-1.097.326-.118.667-.199 1.008-.302l3-.883a.24.24 0 00.12-.088c.496-.7.985-1.406 1.474-2.105C15.69 3.423 16.72 1.95 17.75.47c.111-.155.215-.316.319-.471 2.75 1.892 5.491 3.79 8.24 5.682a22600.4 22600.4 0 01-10.07 14.448c-.793-.56-1.594-1.111-2.394-1.678-.082.103-.163.199-.237.294-.756.935-1.727 1.553-2.89 1.87-.623.17-1.253.287-1.882.427-.823.184-1.638.36-2.46.544-.016 0-.023.008-.045.015.148.493.296.98.452 1.465-1.327.405-2.638.802-3.943 1.2zm1.712-8.56c.49 1.634.978 3.268 1.468 4.894.022 0 .037 0 .051-.007 1.097-.243 2.194-.486 3.283-.736.445-.103.904-.192 1.334-.331a4.295 4.295 0 002.075-1.436l2.735-3.422c.415-.523.83-1.045 1.252-1.568.155-.199.267-.412.282-.67.03-.404-.149-.706-.46-.949a1.096 1.096 0 00-1.526.191c-.06.067-.141.11-.215.162-.023.015-.052.03-.074.044-.95.766-1.905 1.531-2.854 2.297-.044.037-.066.037-.118.007-.675-.405-1.349-.81-2.03-1.207a7.205 7.205 0 00-.349-.199l2.779-4.357c-.037.007-.052.015-.067.015-.83.243-1.652.493-2.482.721-.474.133-.845.39-1.097.81-.118.199-.252.39-.378.581l-3.157 4.836c-.074.118-.155.213-.304.243a.705.705 0 01-.148.08zm10.212-9.149l.007.007c.052-.03.097-.059.148-.08.942-.501 1.927-.538 2.935-.266.719.192 1.349.56 1.905 1.06a4.49 4.49 0 011.319 2.01c.17.552.215 1.111.103 1.685l-.066.294c.007 0 .007 0 .015.008 1.237-1.774 2.467-3.548 3.705-5.322-2.179-1.508-4.343-3.01-6.521-4.511l-3.55 5.115zm3.297 5.918c.178-.03.349-.045.52-.081.748-.177 1.259-.633 1.518-1.347.223-.626.126-1.237-.148-1.826-.43-.92-1.148-1.545-2.082-1.913-.719-.287-1.46-.317-2.194-.037-.563.22-.985.596-1.2 1.17-.178.479-.156.964-.015 1.45.067.236.163.457.282.663 1.437-.928 3.416.213 3.32 1.92zM1.477 16.134c.69 2.289 1.37 4.563 2.06 6.845.645-.2 1.282-.39 1.927-.582-.69-2.296-1.371-4.578-2.06-6.867-.645.199-1.282.398-1.927.604zm12.99 1.508c.504.354 1 .7 1.505 1.053 1.356-1.95 2.705-3.886 4.053-5.83-.03 0-.044.015-.066.023-.023.014-.037.03-.06.044-.593.39-1.252.56-1.956.567-.133 0-.23.014-.289.147-.015.03-.044.051-.067.08l-2.579 3.225c-.177.235-.355.456-.54.691zm-1.104-9.119c-.83 1.303-1.66 2.606-2.497 3.908.304.184.6.361.897.538.719-.582 1.422-1.156 2.141-1.737-.489-.847-.711-1.737-.54-2.709z" fill="#67779A"/></svg>