<svg width="27" height="24" fill="none" xmlns="http://www.w3.org/2000/svg"><path d="M.188 21.218c.138-.392.24-.807.403-1.186.24-.525.657-.94 1.161-1.246.997-.611 1.994-1.222 3.004-1.821.441-.257.63-.611.643-1.112.013-.586-.075-1.088-.517-1.54-.518-.537-.82-1.197-1.048-1.906a.53.53 0 00-.164-.244c-.277-.281-.441-.624-.441-1.015a15.387 15.387 0 01.012-1.527c.026-.257.177-.501.265-.758.05-.146.14-.293.14-.452.024-.415.012-.819 0-1.234-.039-1.882 1.261-3.776 3.646-4.13 1.25-.184 2.46-.11 3.622.403.038.024.088.024.076.024.214-.513.365-1.05.643-1.503C12.24.97 13.223.456 14.36.211c1.464-.305 2.915-.293 4.366.123 1.78.513 2.852 1.967 2.814 3.764a66.877 66.877 0 000 2.248c0 .086.038.183.089.244.252.33.353.71.353 1.112v1.479c0 .684-.29 1.21-.896 1.564a.438.438 0 00-.177.22 9.62 9.62 0 01-1.45 2.566.374.374 0 00-.09.22c-.012.44-.012.868 0 1.308.013.513.304.855.758 1.075 1.3.623 2.6 1.259 3.9 1.882 1.198.574 1.968 1.49 2.233 2.774.025.11.05.232.05.342v2.065H.553c-.113 0-.24.012-.353.012-.012-.672-.013-1.332-.013-1.991zm7.003 1.1h18.235c0-.428.038-.832-.013-1.235-.113-.94-.605-1.662-1.45-2.15-.405-.233-.846-.428-1.263-.636-.997-.489-1.994-.965-2.99-1.442-.758-.367-1.187-.953-1.212-1.772-.025-.55-.013-1.1 0-1.65 0-.073.05-.158.088-.22a8.686 8.686 0 001.616-2.896c.05-.134.113-.22.265-.256.404-.122.63-.391.643-.807.013-.574.026-1.148-.012-1.723-.013-.195-.177-.378-.265-.574-.05-.122-.152-.244-.152-.367-.012-.88 0-1.76 0-2.64.013-1.246-.681-2.284-1.893-2.724-1.54-.562-3.117-.562-4.681-.098-1.401.428-2.184 1.503-2.158 2.823.012.892.012 1.784.012 2.664a.52.52 0 01-.139.318c-.164.183-.29.39-.29.635V9.23c0 .293.139.513.366.696.101.086.202.22.24.343.278 1.063.782 2.028 1.464 2.908a.56.56 0 01.1.318c.013.452 0 .904 0 1.356.013.88-.39 1.527-1.198 1.943-1.199.623-2.385 1.259-3.584 1.882-1.603.855-1.893 2.138-1.729 3.641zm-.946.012c.012-.037.025-.05.025-.074 0-.244 0-.489.013-.745.012-1.479.643-2.64 1.968-3.41.48-.28.972-.537 1.477-.782.492-.244.934-.55 1.438-.77.366-.158.707-.354 1.048-.55.416-.232.618-.598.605-1.063 0-.366.013-.745 0-1.111a.696.696 0 00-.113-.355 9.093 9.093 0 01-1.363-2.75.602.602 0 00-.164-.268 1.607 1.607 0 01-.518-1.149c-.012-.599-.037-1.21.013-1.808.025-.294.19-.587.29-.88.038-.122.114-.245.114-.367.013-.464-.025-.94.013-1.405.025-.318-.101-.477-.379-.599-1.073-.5-2.196-.55-3.332-.366-1.678.268-2.826 1.588-2.826 3.226 0 .574.012 1.148 0 1.735a.49.49 0 01-.14.318c-.201.195-.302.403-.29.684.013.403.013.806 0 1.21 0 .268.114.464.329.635a.559.559 0 01.176.245c.253.977.808 1.784 1.502 2.517a.566.566 0 01.139.317c.013.404 0 .807.013 1.21.012.721-.303 1.259-.934 1.65-1.01.599-2.007 1.222-3.004 1.82-1.085.66-1.4 1.675-1.236 2.897 1.69-.012 3.407-.012 5.136-.012z" fill="#67779A"/></svg>