<svg width="21" height="28" fill="none" xmlns="http://www.w3.org/2000/svg"><path d="M.716 27.992c-.42-.142-.514-.467-.514-.879.007-5.414 0-10.821 0-16.236V.927C.202.8.209.672.225.546A.577.577 0 01.7.023C.794 0 .895 0 .997 0h18.488c.125 0 .25.008.374.047.226.072.366.23.405.468.024.142.024.292.024.435 0 7.228 0 14.447.007 21.675 0 .396-.109.689-.39.966-1.34 1.337-2.665 2.7-4.006 4.053-.132.134-.288.237-.436.356-4.918-.008-9.836-.008-14.747-.008zm.748-26.717V26.71H14.66v-3.602c0-.578.226-.808.803-.808h3.546V1.282c-5.853-.007-11.691-.007-17.545-.007zm14.474 22.3v2.113l2.082-2.113h-2.082z" fill="#67779A"/><path d="M12.447 6.713c1.13 0 2.26-.008 3.39 0 .515 0 .834.435.64.87-.125.294-.383.389-.679.389H9.071c-.295 0-.553-.072-.693-.364-.203-.42.086-.88.577-.895.53-.016 1.06-.008 1.59-.008.631.008 1.27.008 1.902.008zm-.032 5.7h-3.39c-.515 0-.842-.396-.663-.831.07-.167.265-.293.429-.404.078-.056.21-.032.32-.032h6.617c.124 0 .25.008.374.04a.614.614 0 01-.008 1.18 1.47 1.47 0 01-.374.039c-1.1.008-2.206.008-3.305.008zm.008 4.433h-3.39c-.523 0-.819-.372-.678-.823.085-.27.311-.428.646-.436.43-.008.858 0 1.294 0h5.488c.311 0 .569.08.709.388.18.42-.11.855-.593.87-.436.017-.88.009-1.317.009-.725-.008-1.442-.008-2.159-.008zm-7.459-4.663c.514-.673 1.013-1.33 1.52-1.979.257-.332.514-.427.81-.309a.622.622 0 01.328.84.696.696 0 01-.094.166c-.647.847-1.294 1.702-1.948 2.54-.258.333-.593.365-.928.104a26.3 26.3 0 01-1.052-.847c-.304-.261-.351-.641-.125-.918.218-.27.57-.301.889-.072.195.143.382.301.6.475zm0 4.433c.499-.649.982-1.282 1.465-1.915.343-.452.702-.547 1.021-.285.304.253.297.633-.03 1.06-.585.76-1.17 1.528-1.754 2.288-.359.46-.663.499-1.115.135-.304-.246-.608-.483-.904-.729-.343-.285-.405-.664-.172-.957.226-.285.593-.31.936-.04.171.135.343.285.553.443zm0-8.866c.296-.388.584-.76.865-1.132.234-.3.46-.61.694-.903.272-.332.631-.395.92-.166.28.222.311.61.054.95-.631.831-1.263 1.663-1.902 2.478-.273.356-.616.396-.966.127a32.741 32.741 0 01-1.014-.816c-.327-.277-.39-.649-.163-.934.226-.293.584-.316.935-.055.195.142.374.293.577.451z" fill="#67779A"/></svg>