<svg width="21" height="24" fill="none" xmlns="http://www.w3.org/2000/svg"><path d="M.608 23.333c-.32-.178-.406-.459-.406-.828C.208 15.25.208 7.998.208.745c0-.269.03-.51.277-.645a.764.764 0 01.35-.095c5.506-.007 11.005-.007 16.51 0 .388 0 .616.23.622.63.006 1.403.006 2.812 0 4.214 0 .382-.228.631-.554.625-.32 0-.548-.262-.554-.638-.007-1.134 0-2.263 0-3.397v-.287H1.322v21.015H16.86v-6.648c0-.427.221-.688.572-.682a.55.55 0 01.524.49c.012.096.012.198.012.294 0 2.3-.006 4.602.006 6.903 0 .363-.086.637-.412.797-5.653.012-11.3.012-16.953.012z" fill="#fff"/><path d="M9.278 18.368c-.4 0-.659-.293-.597-.688.148-.944.29-1.887.456-2.83.037-.192.147-.402.283-.542 2.47-2.569 4.945-5.131 7.42-7.687.351-.363.64-.363.998.006l2.18 2.257c.369.382.369.675.006 1.051a6796.07 6796.07 0 00-7.408 7.675c-.203.21-.437.28-.702.325-.832.134-1.663.28-2.494.427-.062 0-.111.006-.142.006zm7.519-6.673c-.573-.593-1.102-1.148-1.657-1.728-.043.051-.092.128-.154.191-1.471 1.524-2.943 3.054-4.42 4.57-.24.25-.395.498-.432.855-.055.503-.148.994-.228 1.523.099-.013.173-.02.24-.032.493-.083.986-.16 1.472-.255a.7.7 0 00.376-.197c1.558-1.6 3.103-3.207 4.655-4.813.05-.057.117-.095.148-.114zm.554-3.908c-.443.453-.893.912-1.311 1.345.517.542 1.053 1.09 1.557 1.62l1.3-1.346-1.546-1.619zM4.58 5.454c.708-.733 1.38-1.44 2.069-2.135a.894.894 0 01.456-.23c.215-.031.4.09.492.307.099.236.074.465-.104.656-.278.3-.567.593-.856.886l-1.59 1.645c-.313.325-.615.325-.935 0-.37-.383-.739-.759-1.102-1.141-.259-.274-.277-.638-.05-.867.222-.223.573-.204.826.057.27.255.523.53.794.822zm0 6.801c.702-.726 1.373-1.427 2.05-2.122a.835.835 0 01.302-.217.514.514 0 01.634.223.602.602 0 01-.055.695c-.043.051-.092.096-.136.147-.775.803-1.551 1.612-2.333 2.415-.296.306-.604.306-.9 0a98.096 98.096 0 01-1.12-1.166c-.259-.274-.277-.637-.05-.867.222-.223.567-.204.826.058.252.267.505.541.782.835zm.043 6.827c.055-.09.092-.172.148-.23.628-.65 1.25-1.3 1.884-1.95.265-.274.616-.3.837-.064.228.236.21.593-.061.867l-2.383 2.467c-.32.325-.616.325-.936 0A94.51 94.51 0 013.01 19.03c-.253-.268-.278-.618-.056-.854.228-.242.573-.223.838.05.27.262.523.53.83.855z" fill="#fff"/></svg>