<svg width="27" height="26" fill="none" xmlns="http://www.w3.org/2000/svg"><path d="M26.302 6.861c-.155.173-.282.378-.459.504a384.945 384.945 0 01-4.03 2.83 1.072 1.072 0 01-.495.19c-.254.023-.43-.142-.522-.402a.636.636 0 01.127-.676c.085-.095.184-.165.282-.236 1.024-.724 2.055-1.44 3.078-2.163.078-.055.156-.11.254-.188-.098-.071-.176-.118-.254-.173-2.64-1.675-5.28-3.342-7.92-5.017-.149-.094-.262-.094-.41.008-1.525 1.077-3.057 2.147-4.588 3.224l-.212.157c.106.07.19.126.275.18 2.753 1.747 5.5 3.492 8.26 5.222.331.205.466.472.459.889-.008 2.485-.008 4.977 0 7.462 0 .401-.12.676-.431.889-.932.637-1.857 1.29-2.782 1.942-.233.165-.473.267-.74.11-.27-.165-.311-.44-.311-.755.007-2.343 0-4.694.007-7.038 0-.22-.071-.33-.233-.432a1617.732 1617.732 0 01-8.493-5.379c-.176-.11-.29-.102-.452.016a971.41 971.41 0 01-4.525 3.177c-.077.055-.148.11-.247.18.106.072.184.127.261.174 2.633 1.667 5.267 3.334 7.9 5.009.176.11.29.094.452-.024 1.228-.873 2.47-1.738 3.706-2.603.197-.141.395-.26.642-.15.403.166.523.716.22 1.063a1.312 1.312 0 01-.24.204c-1.363.96-2.733 1.91-4.088 2.878-.297.212-.565.22-.876.023-3.092-1.965-6.19-3.923-9.29-5.89-.579-.369-.586-.911-.021-1.312C5.646 7.23 10.673 3.7 15.699.17c.296-.213.565-.228.875-.032 3.092 1.966 6.199 3.924 9.29 5.898.177.11.297.322.438.487v.338zM8.09 7.066c.113.078.205.133.29.188 2.745 1.738 5.485 3.476 8.23 5.206.332.212.48.472.48.904-.013 2.045-.006 4.09-.006 6.126v.346c.113-.07.19-.11.254-.157.473-.33.946-.677 1.426-.991.155-.102.219-.22.212-.425-.008-1.91-.008-3.821-.008-5.732v-.323c-.225.158-.409.284-.6.41-.331.22-.677.164-.854-.134-.197-.33-.113-.724.226-.975.212-.158.424-.307.664-.472-.1-.063-.177-.118-.254-.173L15.205 9c-1.666-1.054-3.332-2.115-5.005-3.16-.085-.056-.233-.08-.311-.025-.586.394-1.172.81-1.8 1.25z" fill="#67779A"/><path d="M26.302 12.146c-.183.188-.346.408-.55.55-1.3.928-2.605 1.832-3.911 2.752-.092.063-.19.134-.29.181a.537.537 0 01-.692-.244.674.674 0 01.071-.802c.07-.079.155-.15.24-.212 1.362-.96 2.725-1.911 4.087-2.87.488-.338.777-.252 1.052.299-.007.117-.007.227-.007.345zm0-2.674c-.155.18-.29.401-.473.527a396.4 396.4 0 01-4.087 2.87c-.417.29-.812.165-.953-.291a.632.632 0 01.12-.629c.07-.086.17-.157.261-.228l4.066-2.854c.502-.354.798-.26 1.066.314v.291zm0 5.284c-.176.189-.324.41-.522.55-1.313.936-2.64 1.864-3.96 2.784a1.213 1.213 0 01-.417.197c-.254.055-.48-.095-.579-.346a.663.663 0 01.106-.732 1.5 1.5 0 01.261-.22 778.065 778.065 0 014.053-2.838c.48-.338.776-.26 1.066.275-.008.102-.008.212-.008.33zm-10.999 4.899a.663.663 0 01-.303.59c-1.433 1.006-2.873 2.013-4.306 3.02-.269.188-.509.11-.763-.048-2.224-1.415-4.454-2.823-6.678-4.23-.876-.559-1.758-1.11-2.633-1.667-.36-.229-.48-.512-.374-.85.105-.338.402-.519.705-.409.128.048.248.118.368.19a3490.55 3490.55 0 018.796 5.574c.162.102.275.095.43-.015 1.236-.881 2.478-1.746 3.72-2.619.205-.142.417-.26.671-.134.24.118.36.315.367.598z" fill="#67779A"/><path d="M15.303 22.281c.014.268-.113.457-.303.59-1.433 1.015-2.873 2.013-4.306 3.02-.269.188-.509.11-.763-.055-1.814-1.156-3.628-2.296-5.443-3.452-1.27-.803-2.534-1.605-3.805-2.414a1.99 1.99 0 01-.254-.19.684.684 0 01-.134-.817c.134-.26.417-.385.685-.29.113.038.219.101.317.172 2.944 1.864 5.888 3.727 8.825 5.599.162.102.268.102.43-.008 1.236-.88 2.485-1.746 3.728-2.619.205-.141.416-.259.67-.141.226.126.346.322.353.605z" fill="#67779A"/><path d="M10.369 20.78c-.148-.063-.275-.103-.395-.181L.613 14.678c-.247-.158-.424-.362-.396-.7.022-.26.156-.456.382-.55.232-.095.43 0 .628.125 1.666 1.054 3.332 2.107 4.998 3.169a676.53 676.53 0 013.89 2.47c.162.101.275.11.43-.009a469.303 469.303 0 013.707-2.602c.148-.103.324-.174.494-.19.24-.023.416.134.508.386.092.252.064.488-.106.684-.078.087-.17.165-.261.228-1.363.96-2.725 1.919-4.095 2.87-.127.087-.282.142-.423.22z" fill="#67779A"/></svg>