<svg width="25" height="24" fill="none" xmlns="http://www.w3.org/2000/svg"><path d="M.202 16.07c.175-.603.343-1.211.518-1.814.02-.073.033-.154.06-.227.114-.361.37-.502.747-.408.464.12.928.24 1.385.368.135.04.215.013.316-.094.377-.395.76-.783 1.164-1.15.1-.095.134-.168.094-.295a46.074 46.074 0 01-.37-1.379c-.108-.415.034-.655.457-.77.653-.18 1.298-.354 1.95-.521.39-.1.646.047.754.428.128.455.255.917.37 1.378.033.148.1.201.255.235a20.86 20.86 0 011.54.408c.148.047.236.053.35-.067.316-.335.653-.656.982-.977.323-.321.612-.315.935 0 .464.455.921.917 1.379 1.372.323.32.323.609 0 .93a67 67 0 01-.982.977c-.101.1-.141.18-.074.321a4.39 4.39 0 01.424 1.6c.013.146.094.173.208.207l1.365.361c.444.12.579.361.464.803a168.44 168.44 0 01-.51 1.894c-.115.415-.357.562-.774.455-.464-.12-.922-.241-1.386-.368-.128-.034-.201-.007-.296.093-.376.395-.76.783-1.156 1.158-.115.107-.135.18-.095.314.128.449.25.904.364 1.359.107.415-.04.662-.451.776-.592.16-1.184.314-1.769.475-.08.02-.154.06-.235.087h-.33c-.249-.14-.356-.368-.423-.636-.101-.415-.222-.83-.33-1.244-.034-.12-.074-.18-.215-.194a4.605 4.605 0 01-1.58-.415c-.149-.074-.236-.04-.344.073a44.92 44.92 0 01-.982.977c-.316.315-.605.315-.921 0-.47-.461-.935-.923-1.399-1.391-.323-.328-.323-.603.007-.93.316-.322.639-.643.968-.957.121-.114.128-.201.081-.362a17.564 17.564 0 01-.41-1.552c-.034-.14-.081-.194-.209-.228-.437-.113-.874-.24-1.318-.348-.262-.06-.457-.194-.558-.441-.02-.094-.02-.188-.02-.281zm1.197-.214c.47.127.914.24 1.358.36.43.115.545.228.565.683.034.683.189 1.325.518 1.928.215.394.182.568-.141.89l-.955.95c.276.274.538.528.807.796.316-.315.652-.656.995-.99.27-.268.471-.308.8-.127a4.437 4.437 0 001.93.535c.532.02.62.114.754.622.114.428.236.85.357 1.298.37-.1.72-.194 1.082-.287-.127-.482-.255-.95-.376-1.419-.094-.355-.034-.555.276-.736a4.452 4.452 0 001.513-1.506c.181-.294.383-.361.726-.267.41.107.82.22 1.224.328.067.02.135.026.209.04.094-.362.188-.71.282-1.07-.477-.128-.935-.248-1.385-.376-.41-.113-.518-.24-.538-.655-.027-.69-.182-1.339-.518-1.948-.216-.401-.182-.568.148-.89.322-.327.652-.649.955-.95a86.491 86.491 0 00-.794-.796l-.989.984c-.295.294-.477.328-.84.133a4.535 4.535 0 00-1.91-.528c-.545-.027-.619-.107-.767-.643-.114-.421-.229-.836-.35-1.278-.37.1-.713.188-1.076.288.02.087.027.154.047.22.108.41.222.817.33 1.219.087.328.02.528-.262.702a4.528 4.528 0 00-1.547 1.54c-.168.274-.377.334-.686.26-.256-.067-.511-.14-.774-.207-.222-.06-.45-.114-.686-.174-.094.361-.181.703-.282 1.07z" fill="#67779A"/><path d="M16.457 14.243c-.141-.034-.343-.087-.551-.14-.518-.134-1.03-.275-1.547-.415-.43-.12-.572-.362-.458-.79.115-.448.229-.89.357-1.332.04-.147.013-.227-.101-.334-.397-.368-.774-.75-1.143-1.138-.095-.1-.168-.14-.296-.1-.458.127-.922.248-1.386.368-.417.107-.659-.034-.773-.448a103.64 103.64 0 01-.525-1.94c-.1-.382.047-.643.43-.75.458-.128.922-.255 1.386-.368.148-.04.202-.1.236-.261.114-.516.255-1.024.41-1.533.047-.147.047-.234-.068-.341-.336-.314-.659-.649-.988-.977-.31-.314-.316-.602-.007-.917.47-.475.942-.943 1.412-1.412.31-.3.592-.294.902.007.343.335.679.67 1.015 1.01.088.094.162.114.29.054a4.62 4.62 0 011.627-.428c.135-.014.168-.08.195-.187.121-.462.242-.917.37-1.379.121-.421.363-.569.794-.455.645.167 1.29.341 1.93.515.403.107.551.362.444.756-.121.462-.242.924-.37 1.379-.04.134-.007.214.1.314.397.368.78.743 1.144 1.138.108.12.188.14.336.1.437-.127.875-.24 1.318-.354.458-.12.7.02.828.468.168.616.336 1.231.504 1.854.121.468-.013.702-.49.83-.445.12-.895.24-1.34.354-.114.027-.18.067-.194.214a4.544 4.544 0 01-.417 1.573c-.074.147-.04.234.074.34.336.322.659.65.982.978.309.314.316.602 0 .916-.464.469-.928.93-1.4 1.392-.315.308-.605.308-.92 0-.337-.328-.673-.655-.996-.997-.108-.107-.195-.12-.33-.06a4.497 4.497 0 01-1.58.415c-.135.013-.182.073-.215.194a84.16 84.16 0 01-.377 1.398c-.087.322-.282.482-.612.489zm4.506-2.536l.814-.81a67.67 67.67 0 01-.995-.983c-.263-.261-.303-.462-.128-.777a4.382 4.382 0 00.544-1.967c.02-.488.122-.589.613-.716.43-.114.86-.227 1.318-.355-.101-.36-.195-.716-.29-1.084-.457.12-.887.235-1.318.355-.497.134-.645.08-.914-.355a4.021 4.021 0 00-1.298-1.304c-.491-.308-.532-.429-.377-.99.114-.416.222-.824.336-1.259-.376-.1-.726-.194-1.09-.287-.073.267-.14.501-.201.729-.067.24-.128.482-.195.723-.087.3-.235.441-.525.448-.773.027-1.5.2-2.179.582-.235.134-.47.087-.672-.094-.088-.08-.168-.167-.25-.247-.282-.281-.557-.562-.8-.803l-.806.803c.302.301.632.622.961.95.31.308.343.482.142.85a4.396 4.396 0 00-.532 1.947c-.02.442-.134.575-.558.69-.444.12-.895.233-1.365.36.1.369.188.717.289 1.085l1.318-.348c.498-.134.652-.08.921.354.337.542.774.977 1.319 1.319.457.287.504.428.363.95-.114.421-.229.843-.343 1.284.377.1.726.188 1.09.288.14-.508.262-.983.396-1.452.094-.321.242-.441.572-.455.733-.027 1.426-.194 2.071-.549.33-.18.525-.14.8.134.33.335.66.676.97.984zM7.358 13.962a2.909 2.909 0 012.918 2.884c.007 1.6-1.318 2.917-2.918 2.91-1.601-.006-2.906-1.31-2.906-2.897 0-1.592 1.305-2.89 2.906-2.897zm1.842 2.89a1.84 1.84 0 00-1.836-1.813c-1.002.007-1.829.83-1.829 1.827 0 1.004.854 1.847 1.85 1.827 1.008-.027 1.822-.85 1.815-1.84z" fill="#67779A"/><path d="M14.245 7.123c-.007-1.586 1.318-2.904 2.925-2.904 1.58-.006 2.906 1.325 2.899 2.904-.007 1.593-1.338 2.904-2.94 2.898a2.931 2.931 0 01-2.884-2.898zm2.898 1.82c1.016 0 1.85-.823 1.85-1.826A1.84 1.84 0 0017.17 5.29c-1.015 0-1.85.823-1.843 1.827 0 1.003.821 1.82 1.816 1.826z" fill="#67779A"/></svg>