<svg width="9" height="10" fill="none" xmlns="http://www.w3.org/2000/svg"><path d="M8.059.915c-1.254-1.22-3.297-1.22-4.55 0L.035 4.293A.115.115 0 000 4.376c0 .031.012.06.035.083l.49.478a.122.122 0 00.17 0L4.17 1.559a2.301 2.301 0 011.615-.65c.61 0 1.183.23 1.613.65a2.177 2.177 0 010 3.14L3.857 8.143l-.574.558a1.404 1.404 0 01-1.945 0 1.31 1.31 0 010-1.891l3.513-3.417a.476.476 0 01.332-.133h.001a.47.47 0 01.33.133.445.445 0 010 .642L2.64 6.827a.115.115 0 00-.034.083c0 .03.012.06.034.082l.492.478a.122.122 0 00.169 0l2.87-2.792a1.335 1.335 0 000-1.928 1.433 1.433 0 00-1.984 0l-.34.333L.676 6.167a2.228 2.228 0 00-.502.729 2.2 2.2 0 00.502 2.447A2.34 2.34 0 002.31 10c.591 0 1.182-.219 1.632-.657L8.06 5.341a3.072 3.072 0 000-4.426z" fill="#6091F8"/></svg>