<svg width="181" height="27" fill="none" xmlns="http://www.w3.org/2000/svg"><path d="M6.76 23.456l.573-1.907c-2.36-.177-4.15-.813-5.437-1.943C.644 18.476 0 17.027 0 15.226c0-2.474 1.002-4.487 2.969-6.112 1.967-1.625 4.579-2.402 7.834-2.402h1.001l.465-1.484h5.259l-.465 1.554c2.396.142 4.22.778 5.544 1.873 1.288 1.095 1.968 2.543 1.968 4.274 0 2.508-1.002 4.557-2.97 6.217-2.003 1.66-4.614 2.473-7.833 2.473h-1.145l-.572 1.873H6.76v-.036zm1.825-6.005l2.003-6.641h-.393c-1.395 0-2.504.353-3.399 1.06-.894.706-1.359 1.66-1.359 2.86 0 .813.286 1.45.859 1.908.536.46 1.323.742 2.289.813zm5.222 0h.573c1.36 0 2.504-.353 3.398-1.025.894-.67 1.36-1.625 1.36-2.826 0-.812-.287-1.448-.895-1.907-.608-.495-1.395-.742-2.432-.813l-2.004 6.57zm10.553 5.264l5.044-16.816h5.151l-2.826 9.468 10.123-9.468h4.865l-5.044 16.816h-5.15l2.825-9.468-10.123 9.468H24.36zm18.422 3.391L45 18.652h1.538a22.148 22.148 0 002.79-4.133c.787-1.449 1.574-3.603 2.433-6.5l.608-2.084h14.594l-3.827 12.717h2.11l-2.826 7.454h-4.4l1.038-3.356H48.792l-1.36 3.356h-4.65zm9.336-7.454h5.831l2.647-8.76h-4.364l-.572 1.66c-.966 2.896-2.146 5.263-3.542 7.1z" fill="#6091F8"/><path d="M63.743 22.715l9.98-10.21L69.538 5.9h5.688l3.863 6.96 2.11-6.96h5.223l-2.003 6.783L92.002 5.9h6.475l-8.728 7.242 3.863 9.574h-5.795l-2.432-6.324-2.72 2.155-1.251 4.169H76.19l1.36-4.487-1.252-1.943-5.867 6.43h-6.689zm31.515 0L100.3 5.899h5.151l-2.825 9.468 10.123-9.468h4.865l-5.044 16.816h-5.151l2.826-9.468-10.123 9.468h-4.865zm21.748 0l4.901-16.321h7.726c1.682 0 3.005.318 4.007.99 1.001.67 1.502 1.553 1.502 2.72 0 1.13-.465 2.048-1.359 2.79-.894.742-2.075 1.201-3.506 1.484 1.038.212 1.86.636 2.54 1.236.644.636 1.002 1.378 1.002 2.296 0 1.413-.68 2.544-2.075 3.462-1.359.883-3.219 1.343-5.58 1.343h-9.158zm2.182-1.378h6.833c1.824 0 3.255-.318 4.328-.919 1.073-.636 1.61-1.483 1.61-2.543 0-.883-.43-1.554-1.288-2.049-.859-.495-1.968-.742-3.327-.742h-6.224l-1.932 6.253zm2.29-7.63h5.866c1.753 0 3.184-.318 4.257-.954 1.073-.636 1.609-1.484 1.609-2.508 0-1.625-1.323-2.438-3.97-2.438h-5.974l-1.788 5.9zm25.182 9.396c-2.361 0-4.257-.636-5.723-1.908-1.467-1.271-2.218-2.932-2.218-4.945 0-2.614 1.037-4.981 3.112-7.1 2.075-2.085 4.578-3.145 7.476-3.145 2.182 0 3.899.6 5.115 1.802 1.216 1.201 1.824 2.685 1.824 4.451 0 1.06-.178 1.978-.5 2.861h-15.024c-.036.46-.072.848-.072 1.096 0 1.66.573 2.967 1.682 3.956 1.108.99 2.575 1.484 4.364 1.484 2.182 0 4.256-.742 6.224-2.19l1.037 1.13c-2.289 1.66-4.686 2.508-7.297 2.508zm-5.652-9.397h13.271c.107-.388.143-.847.143-1.342 0-1.413-.429-2.579-1.323-3.497-.859-.919-2.147-1.378-3.864-1.378-1.967 0-3.684.6-5.186 1.802-1.467 1.165-2.504 2.65-3.041 4.415zm29.762-7.171c2.432 0 4.399.636 5.902 1.908 1.502 1.272 2.253 2.967 2.253 5.016 0 2.508-1.109 4.77-3.326 6.712-2.218 1.943-4.65 2.932-7.298 2.932-2.682 0-4.721-.671-6.116-2.014-1.395-1.342-2.111-3.073-2.111-5.228 0-.989.108-2.013.286-3.073.179-1.06.537-2.19 1.038-3.356a15.996 15.996 0 011.824-3.25 10.823 10.823 0 012.79-2.579 10.952 10.952 0 013.863-1.554L180.607 0 181 1.413l-10.588 2.12c-1.967.388-3.541 1.095-4.686 2.084-1.145.989-2.039 2.367-2.683 4.133h.143c2.075-2.155 4.615-3.215 7.584-3.215zm-.251 1.413c-2.289 0-4.292.813-6.009 2.402-1.717 1.59-2.576 3.462-2.576 5.653 0 1.66.537 3.002 1.646 4.062 1.073 1.06 2.647 1.59 4.721 1.59 2.147 0 4.15-.848 5.938-2.508 1.825-1.66 2.719-3.568 2.719-5.723 0-1.696-.572-3.003-1.717-3.992-1.109-.99-2.683-1.484-4.722-1.484z" fill="#6091F8"/></svg>