<svg width="14" height="16" fill="none" xmlns="http://www.w3.org/2000/svg"><path d="M12.536 1.464a5.007 5.007 0 00-7.077 0L.054 6.87A.187.187 0 000 7.002c0 .05.019.097.054.132l.764.765a.186.186 0 00.263 0l5.405-5.405A3.528 3.528 0 019 1.454a3.52 3.52 0 012.51 1.04 3.532 3.532 0 011.04 2.512c0 .949-.37 1.84-1.04 2.512L6 13.028l-.892.893a2.14 2.14 0 01-3.026-3.025l5.466-5.467a.73.73 0 01.515-.214h.003c.194 0 .374.077.511.214a.723.723 0 010 1.028L4.11 10.923a.186.186 0 00-.054.132c0 .05.019.098.054.133l.764.765a.186.186 0 00.263 0l4.465-4.469c.412-.412.638-.959.638-1.541A2.17 2.17 0 009.601 4.4a2.185 2.185 0 00-3.086 0l-.53.532-4.933 4.935A3.569 3.569 0 000 12.41 3.586 3.586 0 003.593 16a3.583 3.583 0 002.54-1.052l6.403-6.403A4.984 4.984 0 0014 5.006a4.968 4.968 0 00-1.464-3.542z" fill="#fff"/></svg>